<svg version="1.1" id="Layer_1" xmlns="http://www.w3.org/2000/svg" xmlns:xlink="http://www.w3.org/1999/xlink" x="0px" y="0px"
	 width="100%" viewBox="0 0 500 500" enable-background="new 0 0 500 500" xml:space="preserve">
<path fill="#000000" opacity="1.000000" stroke="none" 
	d="
M283.000000,501.000000 
	C188.666687,501.000000 94.833382,501.000000 1.000050,501.000000 
	C1.000034,334.333405 1.000034,167.666794 1.000017,1.000140 
	C167.666565,1.000093 334.333130,1.000093 500.999756,1.000047 
	C500.999847,167.666519 500.999847,334.333038 500.999939,500.999786 
	C428.500000,501.000000 356.000000,501.000000 283.000000,501.000000 
M400.352875,327.816895 
	C394.585480,327.567078 388.721985,326.540833 383.072083,327.240143 
	C373.368408,328.441193 364.395935,332.357086 357.952667,339.907562 
	C344.347595,355.850433 344.475433,377.094543 356.812012,393.575012 
	C371.474548,413.162689 403.255829,414.052429 419.331879,395.486481 
	C426.901489,386.744415 429.775055,376.886841 429.838409,365.891083 
	C429.992920,339.075256 429.886383,312.257935 429.971497,285.441528 
	C429.978271,283.308380 430.652740,281.177338 431.016937,279.045319 
	C431.592529,278.785095 432.168121,278.524872 432.743744,278.264648 
	C438.528809,283.816345 444.585724,289.117035 450.015350,294.996948 
	C454.592041,299.953217 458.235687,305.760284 462.674286,310.858154 
	C466.342255,315.070953 472.728088,314.868713 478.450287,310.947479 
	C483.450897,307.520630 486.058563,300.963745 484.028198,296.497620 
	C473.150482,272.570160 455.101715,256.732513 429.991852,249.045303 
	C418.639252,245.569778 405.275879,254.058121 402.411285,266.514404 
	C402.274323,268.666382 402.022675,270.818115 402.018585,272.970337 
	C401.987335,289.443024 402.031769,305.915894 401.968933,322.388397 
	C401.961639,324.303772 401.443237,326.217163 400.352875,327.816895 
M131.412323,175.408997 
	C130.954727,179.830643 130.115768,184.250824 130.098953,188.674149 
	C129.942795,229.755981 129.928192,270.838348 129.228561,311.713745 
	C115.107498,302.067535 99.430054,298.640228 82.552856,300.086792 
	C65.543953,301.544647 50.409386,308.086029 39.250809,320.704468 
	C20.718998,341.660828 15.744452,365.862793 25.893917,392.640015 
	C37.414017,423.033386 65.972054,440.513367 98.442856,435.472198 
	C132.703690,430.153107 158.071213,403.639893 157.888184,365.830780 
	C157.669647,320.683929 157.867081,275.535034 157.902527,230.387054 
	C157.904129,228.337509 158.085022,226.288101 158.209991,223.657883 
	C173.893143,229.056488 188.790512,234.287979 203.756805,239.314224 
	C231.889633,248.762299 260.043365,258.149445 288.242432,267.397278 
	C291.738068,268.543671 293.187866,269.996460 293.163300,273.927765 
	C292.983307,302.748169 293.077301,331.570251 293.070068,360.391785 
	C293.069672,361.997162 292.937805,363.602478 292.866394,365.224518 
	C292.203796,365.224518 291.860046,365.302124 291.571899,365.208557 
	C290.947296,365.005768 290.305664,364.789673 289.749969,364.449860 
	C275.041992,355.456360 259.195007,352.338135 242.160065,355.041199 
	C228.440842,357.218109 215.771866,362.210175 205.916824,371.958374 
	C187.784561,389.894012 179.989761,411.483795 186.041687,437.014954 
	C193.400604,468.059845 217.314987,489.322510 250.138153,490.825623 
	C266.933929,491.594788 281.896576,485.916168 295.050598,475.368530 
	C309.052551,464.140961 318.166779,450.178864 320.705292,431.449615 
	C320.785675,430.790497 320.936249,430.131439 320.936432,429.472290 
	C320.955933,360.004517 320.970032,290.536774 320.930908,221.069031 
	C320.930115,219.679321 320.300293,218.289963 319.940063,216.111252 
	C318.306824,211.656631 317.361633,206.772385 314.902191,202.833664 
	C309.156860,193.632614 300.944122,187.559540 290.346863,184.116638 
	C257.715942,173.515396 225.252930,162.397308 192.724167,151.481552 
	C182.312210,147.987564 171.758255,144.829529 160.753525,148.145447 
	C146.906326,152.317841 136.346069,160.330109 131.412323,175.408997 
M307.040253,82.366974 
	C312.699707,115.770866 331.032959,142.344238 352.789307,167.042160 
	C353.902924,168.306366 355.654785,169.481506 357.264832,169.743454 
	C361.491608,170.431168 365.798370,170.805359 370.083801,170.924438 
	C390.334930,171.487137 410.534393,171.034378 430.083771,164.911621 
	C448.576538,159.119751 465.930939,151.196503 478.113525,135.223709 
	C496.132080,111.599289 492.465759,75.091324 466.054352,57.117416 
	C452.472839,47.874664 437.290863,44.872894 421.163239,46.075829 
	C417.700470,46.334106 415.854492,44.921822 413.946136,42.318562 
	C402.688965,26.962627 389.101135,14.897088 369.425537,11.748111 
	C352.693542,9.070242 337.698822,13.349999 325.307983,24.575453 
	C308.465637,39.833752 303.219116,59.330158 307.040253,82.366974 
M200.311584,71.001686 
	C182.326828,71.162521 172.888504,79.724510 174.170013,95.636307 
	C175.486649,111.984253 191.845886,120.693687 205.966705,114.393890 
	C215.650208,110.073738 219.886780,102.291626 219.895660,91.937958 
	C219.907669,77.940628 219.892822,63.943264 219.919601,49.945972 
	C219.922913,48.215374 220.110855,46.485130 220.257675,44.003887 
	C222.530670,45.696205 224.325638,46.642563 225.600876,48.057358 
	C229.026855,51.858295 232.200607,55.885265 235.533157,59.772202 
	C237.816589,62.435509 239.917023,65.199356 244.295181,63.250278 
	C249.819672,60.790874 251.428223,56.843739 248.586029,51.329319 
	C242.767746,40.040745 233.554825,32.609470 221.833832,28.206335 
	C212.615372,24.743303 204.220932,30.584953 204.096298,40.447956 
	C203.984711,49.278316 204.051514,58.110863 204.021957,66.942383 
	C204.015411,68.897881 204.455719,71.209274 200.311584,71.001686 
z"/>
<path fill="#780C99" opacity="1.000000" stroke="none" 
	d="
M320.076233,432.013733 
	C318.166779,450.178864 309.052551,464.140961 295.050598,475.368530 
	C281.896576,485.916168 266.933929,491.594788 250.138153,490.825623 
	C217.314987,489.322510 193.400604,468.059845 186.041687,437.014954 
	C179.989761,411.483795 187.784561,389.894012 205.916824,371.958374 
	C215.771866,362.210175 228.440842,357.218109 242.160065,355.041199 
	C259.195007,352.338135 275.041992,355.456360 289.749969,364.449860 
	C290.305664,364.789673 290.947296,365.005768 291.571899,365.208557 
	C291.860046,365.302124 292.203796,365.224518 292.866394,365.224518 
	C292.937805,363.602478 293.069672,361.997162 293.070068,360.391785 
	C293.077301,331.570251 292.983307,302.748169 293.163300,273.927765 
	C293.187866,269.996460 291.738068,268.543671 288.242432,267.397278 
	C260.043365,258.149445 231.889633,248.762299 203.756805,239.314224 
	C188.790512,234.287979 173.893143,229.056488 158.209991,223.657883 
	C158.085022,226.288101 157.904129,228.337509 157.902527,230.387054 
	C157.867081,275.535034 157.669647,320.683929 157.888184,365.830780 
	C158.071213,403.639893 132.703690,430.153107 98.442856,435.472198 
	C65.972054,440.513367 37.414017,423.033386 25.893917,392.640015 
	C15.744452,365.862793 20.718998,341.660828 39.250809,320.704468 
	C50.409386,308.086029 65.543953,301.544647 82.552856,300.086792 
	C99.430054,298.640228 115.107498,302.067535 129.748093,311.611359 
	C130.538971,308.896149 131.027145,306.285126 131.049332,303.670197 
	C131.413345,260.745026 131.718628,217.819351 132.037109,174.893784 
	C136.346069,160.330109 146.906326,152.317841 160.753525,148.145447 
	C171.758255,144.829529 182.312210,147.987564 192.724167,151.481552 
	C225.252930,162.397308 257.715942,173.515396 290.346863,184.116638 
	C300.944122,187.559540 309.156860,193.632614 314.902191,202.833664 
	C317.361633,206.772385 318.306824,211.656631 319.955719,216.984589 
	C320.006317,289.243195 320.041260,360.628448 320.076233,432.013733 
z"/>
<path fill="#780C99" opacity="1.000000" stroke="none" 
	d="
M307.022858,81.924164 
	C303.219116,59.330158 308.465637,39.833752 325.307983,24.575453 
	C337.698822,13.349999 352.693542,9.070242 369.425537,11.748111 
	C389.101135,14.897088 402.688965,26.962627 413.946136,42.318562 
	C415.854492,44.921822 417.700470,46.334106 421.163239,46.075829 
	C437.290863,44.872894 452.472839,47.874664 466.054352,57.117416 
	C492.465759,75.091324 496.132080,111.599289 478.113525,135.223709 
	C465.930939,151.196503 448.576538,159.119751 430.083771,164.911621 
	C410.534393,171.034378 390.334930,171.487137 370.083801,170.924438 
	C365.798370,170.805359 361.491608,170.431168 357.264832,169.743454 
	C355.654785,169.481506 353.902924,168.306366 352.789307,167.042160 
	C331.032959,142.344238 312.699707,115.770866 307.022858,81.924164 
z"/>
<path fill="#770D98" opacity="1.000000" stroke="none" 
	d="
M403.036255,265.915039 
	C405.275879,254.058121 418.639252,245.569778 429.991852,249.045303 
	C455.101715,256.732513 473.150482,272.570160 484.028198,296.497620 
	C486.058563,300.963745 483.450897,307.520630 478.450287,310.947479 
	C472.728088,314.868713 466.342255,315.070953 462.674286,310.858154 
	C458.235687,305.760284 454.592041,299.953217 450.015350,294.996948 
	C444.585724,289.117035 438.528809,283.816345 432.743744,278.264648 
	C432.168121,278.524872 431.592529,278.785095 431.016937,279.045319 
	C430.652740,281.177338 429.978271,283.308380 429.971497,285.441528 
	C429.886383,312.257935 429.992920,339.075256 429.838409,365.891083 
	C429.775055,376.886841 426.901489,386.744415 419.331879,395.486481 
	C403.255829,414.052429 371.474548,413.162689 356.812012,393.575012 
	C344.475433,377.094543 344.347595,355.850433 357.952667,339.907562 
	C364.395935,332.357086 373.368408,328.441193 383.072083,327.240143 
	C388.721985,326.540833 394.585480,327.567078 401.005615,327.896790 
	C402.129852,325.952179 403.000427,323.929596 403.010559,321.902771 
	C403.103943,303.240601 403.048462,284.577728 403.036255,265.915039 
z"/>
<path fill="#760E96" opacity="1.000000" stroke="none" 
	d="
M200.781036,71.003632 
	C204.455719,71.209274 204.015411,68.897881 204.021957,66.942383 
	C204.051514,58.110863 203.984711,49.278316 204.096298,40.447956 
	C204.220932,30.584953 212.615372,24.743303 221.833832,28.206335 
	C233.554825,32.609470 242.767746,40.040745 248.586029,51.329319 
	C251.428223,56.843739 249.819672,60.790874 244.295181,63.250278 
	C239.917023,65.199356 237.816589,62.435509 235.533157,59.772202 
	C232.200607,55.885265 229.026855,51.858295 225.600876,48.057358 
	C224.325638,46.642563 222.530670,45.696205 220.257675,44.003887 
	C220.110855,46.485130 219.922913,48.215374 219.919601,49.945972 
	C219.892822,63.943264 219.907669,77.940628 219.895660,91.937958 
	C219.886780,102.291626 215.650208,110.073738 205.966705,114.393890 
	C191.845886,120.693687 175.486649,111.984253 174.170013,95.636307 
	C172.888504,79.724510 182.326828,71.162521 200.781036,71.003632 
z"/>
<path fill="#77298F" opacity="1.000000" stroke="none" 
	d="
M320.390747,431.731689 
	C320.041260,360.628448 320.006317,289.243195 319.967651,217.379181 
	C320.300293,218.289963 320.930115,219.679321 320.930908,221.069031 
	C320.970032,290.536774 320.955933,360.004517 320.936432,429.472290 
	C320.936249,430.131439 320.785675,430.790497 320.390747,431.731689 
z"/>
<path fill="#742B89" opacity="1.000000" stroke="none" 
	d="
M131.724716,175.151398 
	C131.718628,217.819351 131.413345,260.745026 131.049332,303.670197 
	C131.027145,306.285126 130.538971,308.896149 130.070068,311.714783 
	C129.928192,270.838348 129.942795,229.755981 130.098953,188.674149 
	C130.115768,184.250824 130.954727,179.830643 131.724716,175.151398 
z"/>
<path fill="#713383" opacity="1.000000" stroke="none" 
	d="
M402.723755,266.214722 
	C403.048462,284.577728 403.103943,303.240601 403.010559,321.902771 
	C403.000427,323.929596 402.129852,325.952179 401.410065,328.054077 
	C401.443237,326.217163 401.961639,324.303772 401.968933,322.388397 
	C402.031769,305.915894 401.987335,289.443024 402.018585,272.970337 
	C402.022675,270.818115 402.274323,268.666382 402.723755,266.214722 
z"/>
</svg>